<svg xmlns="http://www.w3.org/2000/svg" width="100" height="100"><path d="M85 85.1v-.5H15.5V15.402h69V85.1h.5v-.5.5h.5V14.402h-71V85.6h71v-.5z"/><g fill="#BCBEC0"><circle cx="20.688" cy="20.688" r="2.5"/><circle cx="20.688" cy="27.201" r="2.5"/><circle cx="20.688" cy="33.715" r="2.5"/><circle cx="20.688" cy="40.229" r="2.5"/><circle cx="20.688" cy="46.743" r="2.5"/><circle cx="20.688" cy="53.258" r="2.5"/><circle cx="20.688" cy="59.771" r="2.5"/><circle cx="20.688" cy="66.285" r="2.5"/><circle cx="20.688" cy="72.799" r="2.5"/><circle cx="20.688" cy="79.313" r="2.5"/><g><circle cx="27.201" cy="20.688" r="2.5"/><circle cx="27.201" cy="27.201" r="2.5"/><circle cx="27.201" cy="33.715" r="2.5"/><circle cx="27.201" cy="40.229" r="2.5"/><circle cx="27.201" cy="46.743" r="2.5"/><circle cx="27.201" cy="53.258" r="2.5"/><circle cx="27.201" cy="59.771" r="2.5"/><circle cx="27.201" cy="66.285" r="2.5"/><circle cx="27.201" cy="72.799" r="2.5"/><circle cx="27.201" cy="79.313" r="2.5"/></g><g><circle cx="33.715" cy="20.688" r="2.5"/><circle cx="33.715" cy="27.201" r="2.5"/><circle cx="33.715" cy="33.715" r="2.5"/><circle cx="33.715" cy="40.229" r="2.5"/><circle cx="33.715" cy="46.743" r="2.5"/><circle cx="33.715" cy="53.258" r="2.5"/><circle cx="33.715" cy="59.771" r="2.5"/><circle cx="33.715" cy="66.285" r="2.5"/><circle cx="33.715" cy="72.799" r="2.5"/><circle cx="33.715" cy="79.313" r="2.5"/></g><g><circle cx="40.229" cy="20.688" r="2.5"/><circle cx="40.229" cy="27.201" r="2.5"/><circle cx="40.229" cy="33.715" r="2.5"/><circle cx="40.229" cy="40.229" r="2.5"/><circle cx="40.229" cy="46.743" r="2.5"/><circle cx="40.229" cy="53.258" r="2.5"/><circle cx="40.229" cy="59.771" r="2.5"/><circle cx="40.229" cy="66.285" r="2.5"/><circle cx="40.229" cy="72.799" r="2.5"/><circle cx="40.229" cy="79.313" r="2.5"/></g><g><circle cx="46.743" cy="20.688" r="2.5"/><circle cx="46.743" cy="27.201" r="2.5"/><circle cx="46.743" cy="33.715" r="2.5"/><circle cx="46.743" cy="40.229" r="2.5"/><circle cx="46.743" cy="46.743" r="2.5"/><circle cx="46.743" cy="53.258" r="2.5"/><circle cx="46.743" cy="59.771" r="2.5"/><circle cx="46.743" cy="66.285" r="2.5"/><circle cx="46.743" cy="72.799" r="2.5"/><circle cx="46.743" cy="79.313" r="2.5"/></g><g><circle cx="53.257" cy="20.688" r="2.5"/><circle cx="53.257" cy="27.201" r="2.5"/><circle cx="53.257" cy="33.715" r="2.5"/><circle cx="53.257" cy="40.229" r="2.5"/><circle cx="53.257" cy="46.743" r="2.5"/><circle cx="53.257" cy="53.258" r="2.5"/><circle cx="53.257" cy="59.771" r="2.5"/><circle cx="53.257" cy="66.285" r="2.5"/><circle cx="53.257" cy="72.799" r="2.5"/><circle cx="53.257" cy="79.313" r="2.5"/></g><g><circle cx="59.771" cy="20.688" r="2.5"/><circle cx="59.771" cy="27.201" r="2.5"/><circle cx="59.771" cy="33.715" r="2.5"/><circle cx="59.771" cy="40.229" r="2.5"/><circle cx="59.771" cy="46.743" r="2.5"/><circle cx="59.771" cy="53.258" r="2.5"/><circle cx="59.771" cy="59.771" r="2.5"/><circle cx="59.771" cy="66.285" r="2.5"/><circle cx="59.771" cy="72.799" r="2.5"/><circle cx="59.771" cy="79.313" r="2.5"/></g><g><circle cx="66.285" cy="20.688" r="2.5"/><circle cx="66.285" cy="27.201" r="2.5"/><circle cx="66.285" cy="33.715" r="2.5"/><circle cx="66.285" cy="40.229" r="2.5"/><circle cx="66.285" cy="46.743" r="2.5"/><circle cx="66.285" cy="53.258" r="2.5"/><circle cx="66.285" cy="59.771" r="2.5"/><circle cx="66.285" cy="66.285" r="2.5"/><circle cx="66.285" cy="72.799" r="2.5"/><circle cx="66.285" cy="79.313" r="2.5"/></g><g><circle cx="72.799" cy="20.688" r="2.5"/><circle cx="72.799" cy="27.201" r="2.5"/><circle cx="72.799" cy="33.715" r="2.5"/><circle cx="72.799" cy="40.229" r="2.5"/><circle cx="72.799" cy="46.743" r="2.5"/><circle cx="72.799" cy="53.258" r="2.5"/><circle cx="72.799" cy="59.771" r="2.5"/><circle cx="72.799" cy="66.285" r="2.5"/><circle cx="72.799" cy="72.799" r="2.5"/><circle cx="72.799" cy="79.313" r="2.5"/></g><g><circle cx="79.313" cy="20.688" r="2.5"/><circle cx="79.313" cy="27.201" r="2.5"/><circle cx="79.313" cy="33.715" r="2.5"/><circle cx="79.313" cy="40.229" r="2.5"/><circle cx="79.313" cy="46.743" r="2.5"/><circle cx="79.313" cy="53.258" r="2.5"/><circle cx="79.313" cy="59.771" r="2.5"/><circle cx="79.313" cy="66.285" r="2.5"/><circle cx="79.313" cy="72.799" r="2.5"/><circle cx="79.313" cy="79.313" r="2.5"/></g></g></svg>