<svg xmlns="http://www.w3.org/2000/svg" width="100" height="100"><path fill="none" stroke="#010101" stroke-miterlimit="10" d="M10 36.299h80.5v27.29H10z"/><g fill="#E6E7E8"><path d="M13.147 35.707h5.185v4.495h-5.185zM22.878 35.707h5.185v4.495h-5.185zM32.608 35.707h5.185v4.495h-5.185zM42.339 35.707h5.185v4.495h-5.185zM52.07 35.707h5.185v4.495H52.07zM61.801 35.707h5.185v4.495h-5.185zM71.531 35.707h5.186v4.495h-5.186zM81.262 35.707h5.186v4.495h-5.186z"/></g><g fill="#E6E7E8"><path d="M13.147 59.707h5.185v4.494h-5.185zM22.878 59.707h5.185v4.494h-5.185zM32.608 59.707h5.185v4.494h-5.185zM42.339 59.707h5.185v4.494h-5.185zM52.07 59.707h5.185v4.494H52.07zM61.801 59.707h5.185v4.494h-5.185zM71.531 59.707h5.186v4.494h-5.186zM81.262 59.707h5.186v4.494h-5.186z"/></g><path fill="#E6E7E8" d="M13.147 44.875h73.3v9.375h-73.3z"/></svg>