<svg xmlns="http://www.w3.org/2000/svg" width="100" height="100"><g stroke="#010101" stroke-miterlimit="10"><path fill="none" d="M90 61.823c0 .976-.862 1.766-1.926 1.766H11.925c-1.063 0-1.925-.79-1.925-1.766V52.4s2.531-.021 2.531-2.361c0-2.262-2.531-2.321-2.531-2.321v-9.653c0-.975.862-1.765 1.925-1.765h76.149c1.063 0 1.926.79 1.926 1.765v23.758z"/><g fill="#E6E7E8"><path d="M13.147 31.707h5.185v4.495h-5.185zM22.878 31.707h5.185v4.495h-5.185zM32.608 31.707h5.185v4.495h-5.185zM42.339 31.707h5.185v4.495h-5.185zM52.07 31.707h5.185v4.495H52.07zM61.801 31.707h5.185v4.495h-5.185zM71.531 31.707h5.186v4.495h-5.186zM81.262 31.707h5.186v4.495h-5.186z"/></g><g fill="#E6E7E8"><path d="M13.147 63.799h5.185v4.494h-5.185zM22.878 63.799h5.185v4.494h-5.185zM32.608 63.799h5.185v4.494h-5.185zM42.339 63.799h5.185v4.494h-5.185zM52.07 63.799h5.185v4.494H52.07zM61.801 63.799h5.185v4.494h-5.185zM71.531 63.799h5.186v4.494h-5.186zM81.262 63.799h5.186v4.494h-5.186z"/></g></g></svg>