<svg xmlns="http://www.w3.org/2000/svg" width="100" height="100"><path fill="#E6E7E8" d="M24.785 25.005h49.382v49.262H24.785z"/><path d="M89.506 89.312v-.494H10.988V10.985h78.025v78.327h.493v-.494.494H90V10H10v79.804h80v-.492z"/><g fill="#E6E7E8"><path d="M82.099 72.904H90v3.834h-7.901zM82.099 65.711H90v3.833h-7.901zM82.099 58.518H90v3.833h-7.901zM82.099 51.323H90v3.834h-7.901zM82.099 44.13H90v3.834h-7.901zM82.099 36.937H90v3.833h-7.901zM82.099 29.743H90v3.833h-7.901zM82.099 22.55H90v3.832h-7.901z"/><g><path d="M10 73.42h7.901v3.834H10zM10 66.227h7.901v3.833H10zM10 59.033h7.901v3.833H10zM10 51.839h7.901v3.834H10zM10 44.646h7.901v3.834H10zM10 37.453h7.901v3.833H10zM10 30.259h7.901v3.833H10zM10 23.066h7.901v3.832H10z"/></g></g><g fill="#E6E7E8"><path d="M22.839 82.118h3.843V90h-3.843zM30.051 82.118h3.842V90h-3.842zM37.262 82.118h3.843V90h-3.843zM44.473 82.118h3.843V90h-3.843zM51.684 82.118h3.843V90h-3.843zM58.896 82.118h3.843V90h-3.843zM66.107 82.118h3.843V90h-3.843zM73.318 82.118h3.842V90h-3.842z"/></g><g fill="#E6E7E8"><path d="M22.839 10h3.843v7.882h-3.843zM30.051 10h3.842v7.882h-3.842zM37.262 10h3.843v7.882h-3.843zM44.473 10h3.843v7.882h-3.843zM51.684 10h3.843v7.882h-3.843zM58.896 10h3.843v7.882h-3.843zM66.107 10h3.843v7.882h-3.843zM73.318 10h3.842v7.882h-3.842z"/></g></svg>