<?xml version="1.0" encoding="utf-8"?>
<!-- Generator: Adobe Illustrator 16.0.3, SVG Export Plug-In . SVG Version: 6.00 Build 0)  -->
<!DOCTYPE svg PUBLIC "-//W3C//DTD SVG 1.1//EN" "http://www.w3.org/Graphics/SVG/1.1/DTD/svg11.dtd">
<svg version="1.1" id="Layer_1" xmlns="http://www.w3.org/2000/svg" xmlns:xlink="http://www.w3.org/1999/xlink" x="0px" y="0px"
	 width="100px" height="100px" viewBox="0 0 100 100" enable-background="new 0 0 100 100" xml:space="preserve">
<path fill="none" stroke="#000000" stroke-miterlimit="10" d="M10,31.505h80v36.99H10V31.505z"/>
<g>
	<path fill="#E6E7E8" stroke="#000000" stroke-miterlimit="10" d="M12.759,22.351h5.016v9.154h-5.016V22.351z M24.336,22.351h5.016
		v9.154h-5.016V22.351z M35.915,22.351h5.016v9.154h-5.016V22.351z M47.492,22.351h5.016v9.154h-5.016V22.351z M59.07,22.351h5.016
		v9.154H59.07V22.351z M70.648,22.351h5.016v9.154h-5.016V22.351z M82.227,22.351h5.016v9.154h-5.016V22.351z"/>
</g>
<g>
	<path fill="#E6E7E8" stroke="#000000" stroke-miterlimit="10" d="M12.759,68.495h5.016v9.153h-5.016V68.495z M24.336,68.495h5.016
		v9.153h-5.016V68.495z M35.915,68.495h5.016v9.153h-5.016V68.495z M47.492,68.495h5.016v9.153h-5.016V68.495z M59.07,68.495h5.016
		v9.153H59.07V68.495z M70.648,68.495h5.016v9.153h-5.016V68.495z M82.227,68.495h5.016v9.153h-5.016V68.495z"/>
</g>
<circle fill="#FFFFFF" cx="15.141" cy="64.749" r="1.881"/>
</svg>
