<svg xmlns="http://www.w3.org/2000/svg" width="100" height="100"><path fill="#BCBEC0" d="M34.469 34.73h30v30h-30z"/><path d="M84.567 84.567v-.431H15.864V15.864h68.272v68.703h.431v-.431.431H85V15H15v70h70v-.433z"/><g fill="#BCBEC0"><path d="M85.086 70.177H92v3.362h-6.914zM85.086 63.867H92v3.361h-6.914zM85.086 57.558H92v3.362h-6.914zM85.086 51.246H92v3.363h-6.914zM85.086 44.938H92v3.363h-6.914zM85.086 38.628H92v3.362h-6.914zM85.086 32.318H92v3.362h-6.914zM85.086 26.008H92v3.361h-6.914z"/></g><g fill="#BCBEC0"><path d="M8 70.629h6.914v3.363H8zM8 64.318h6.914v3.363H8zM8 58.01h6.914v3.362H8zM8 51.699h6.914v3.363H8zM8 45.39h6.914v3.363H8zM8 39.08h6.914v3.362H8zM8 32.77h6.914v3.362H8zM8 26.461h6.914v3.361H8z"/></g><g fill="#BCBEC0"><path d="M22.5 85h3.891v8H22.5zM29.801 85h3.891v8h-3.891zM37.103 85h3.891v8h-3.891zM44.404 85h3.891v8h-3.891zM51.705 85h3.891v8h-3.891zM59.007 85h3.891v8h-3.891zM66.309 85H70.2v8h-3.891zM73.609 85H77.5v8h-3.891z"/></g><g fill="#BCBEC0"><path d="M22.5 7h3.891v8H22.5zM29.801 7h3.891v8h-3.891zM37.103 7h3.891v8h-3.891zM44.404 7h3.891v8h-3.891zM51.705 7h3.891v8h-3.891zM59.007 7h3.891v8h-3.891zM66.309 7H70.2v8h-3.891zM73.609 7H77.5v8h-3.891z"/></g></svg>